<svg width="22" height="22" viewBox="0 0 22 22" fill="none" xmlns="http://www.w3.org/2000/svg">
<path d="M0.0332031 16.5603L9.44083 7.15265L12.5196 10.2307L20.1929 2.55664L21.9962 4.35991L12.5501 13.8067L9.43792 10.6953L1.8038 18.3301L0.0332031 16.5603Z" fill="#242748"/>
<path d="M8.52995 0.326544L0 8.73453L1.92377 10.6866L9.31398 3.40676L12.4015 6.54143L14.3521 4.6162L10.1358 0.338159C9.92427 0.123824 9.63635 0.00220768 9.33525 2.97605e-05C9.03415 -0.00214816 8.74451 0.11529 8.52995 0.326544Z" fill="#242748"/>
<path d="M22.0001 12.2242L20.0524 10.2765L12.6789 17.6485L9.55296 14.5233L7.60596 16.4696L11.8738 20.7375C12.0878 20.9512 12.3779 21.0713 12.6804 21.0713C12.9828 21.0713 13.2729 20.9512 13.4869 20.7375L22.0001 12.2242Z" fill="#242748"/>
</svg>
